
<svg id="Layer_2" xmlns="http://www.w3.org/2000/svg" viewBox="0 0 316.73 316.73">
    <defs>
        <style>.cls-1{fill:#000;}</style>
    </defs>
    <g id="Layer_1-2">
        <rect width="316.73" height="316.73" fill="transparent" stroke="#000" stroke-width="15" />
        <g>
            <path class="cls-1"
                d="M36.65,222.09h-12v-57.44h40.88v10.16h-28.88v12.96h25.28v10.16h-25.28v24.16Z" />
            <path class="cls-1" d="M85.53,211.69h28.56v10.4h-40.56v-57.44h12v47.04Z" />
            <path class="cls-1"
                d="M164.65,174.81h-30.48v12.08h28v10.16h-28v14.88h31.84v10.16h-43.6v-57.44h42.24v10.16Z" />
            <path class="cls-1"
                d="M221.93,222.09h-14.64l-10.88-19.6-11.6,19.6h-14l18.56-29.36-17.52-28.08h14.32l10.24,18.56,10.48-18.56h13.84l-17.52,27.6,18.72,29.84Z" />
            <path class="cls-1"
                d="M24.65,234.65h27.92c14.08,0,17.68,8.8,17.68,14.72,0,8.24-4.64,10.56-7.04,11.76,7.04,2.64,8.88,8.24,8.88,13.92,0,4.56-1.92,8.88-4.96,11.84-3.28,3.2-6.4,5.2-18.16,5.2H24.65v-57.44Zm11.52,22.48h14.08c4.72,0,8.48-1.84,8.48-6.4s-3.36-6.16-8.8-6.16h-13.76v12.56Zm0,25.04h14.72c5.84,0,9.2-2.56,9.2-8.4,0-5.04-4.32-6.96-8.64-6.96h-15.28v15.36Z" />
            <path class="cls-1"
                d="M107.45,233.13c7.6,0,27.6,3.28,27.6,30.24s-20,30.24-27.6,30.24-27.6-3.28-27.6-30.24,20-30.24,27.6-30.24Zm0,50.32c6.48,0,15.6-4,15.6-20.08s-9.12-20.08-15.6-20.08-15.6,4-15.6,20.08,9.12,20.08,15.6,20.08Z" />
            <path class="cls-1"
                d="M186.81,292.09h-14.64l-10.88-19.6-11.6,19.6h-14l18.56-29.36-17.52-28.08h14.32l10.24,18.56,10.48-18.56h13.84l-17.52,27.6,18.72,29.84Z" />
        </g>
    </g>
</svg>