<?xml version="1.0" encoding="UTF-8"?>
<svg id="Layer_1" data-name="Layer 1" xmlns="http://www.w3.org/2000/svg" version="1.1" viewBox="0 0 170 130">
  <defs>
    <style>
      .cls-1 {
        fill: #fff;
        stroke-width: 0px;
      }
    </style>
  </defs>
  <rect class="cls-1" x="20" y="80" width="10" height="10"/>
  <rect class="cls-1" x="30" width="10" height="10"/>
  <rect class="cls-1" x="30" y="20" width="10" height="10"/>
  <rect class="cls-1" x="10" y="70" width="10" height="10"/>
  <rect class="cls-1" x="30" y="10" width="10" height="10"/>
  <rect class="cls-1" x="30" y="30" width="10" height="10"/>
  <rect class="cls-1" x="40" width="10" height="10"/>
  <rect class="cls-1" x="50" y="10" width="10" height="10"/>
  <rect class="cls-1" x="20" y="100" width="10" height="10"/>
  <rect class="cls-1" x="120" y="120" width="10" height="10"/>
  <rect class="cls-1" x="110" y="120" width="10" height="10"/>
  <rect class="cls-1" x="100" y="120" width="10" height="10"/>
  <rect class="cls-1" x="90" y="120" width="10" height="10"/>
  <rect class="cls-1" x="80" y="120" width="10" height="10"/>
  <rect class="cls-1" x="70" y="120" width="10" height="10"/>
  <rect class="cls-1" x="60" y="120" width="10" height="10"/>
  <rect class="cls-1" x="40" y="120" width="10" height="10"/>
  <rect class="cls-1" x="50" y="120" width="10" height="10"/>
  <rect class="cls-1" x="60" y="20" width="10" height="10"/>
  <rect class="cls-1" x="80" y="20" width="10" height="10"/>
  <rect class="cls-1" x="100" y="20" width="10" height="10"/>
  <rect class="cls-1" x="70" y="20" width="10" height="10"/>
  <rect class="cls-1" x="90" y="20" width="10" height="10"/>
  <rect class="cls-1" x="20" y="40" width="10" height="10"/>
  <rect class="cls-1" x="10" y="90" width="10" height="10"/>
  <rect class="cls-1" x="20" y="50" width="10" height="10"/>
  <rect class="cls-1" y="60" width="22" height="10"/>
  <rect class="cls-1" y="80" width="20" height="10"/>
  <rect class="cls-1" x="20" y="60" width="10" height="10"/>
  <rect class="cls-1" x="130" y="20" width="10" height="10"/>
  <rect class="cls-1" x="150" y="70" width="10" height="10"/>
  <rect class="cls-1" x="130" y="10" width="10" height="10"/>
  <rect class="cls-1" x="130" y="30" width="10" height="10"/>
  <rect class="cls-1" x="140" y="80" width="10" height="10"/>
  <rect class="cls-1" x="140" y="100" width="10" height="10"/>
  <rect class="cls-1" x="130" y="110" width="10" height="10"/>
  <rect class="cls-1" x="30" y="110" width="10" height="10"/>
  <rect class="cls-1" x="110" y="10" width="10" height="10"/>
  <rect class="cls-1" x="120" width="10" height="10"/>
  <rect class="cls-1" x="130" width="10" height="10"/>
  <rect class="cls-1" x="140" y="40" width="10" height="10"/>
  <rect class="cls-1" x="140" y="50" width="10" height="10"/>
  <rect class="cls-1" x="140" y="60" width="10" height="10"/>
  <rect class="cls-1" x="150" y="90" width="10" height="10"/>
  <rect class="cls-1" x="150" y="60" width="20" height="10"/>
  <rect class="cls-1" x="150" y="80" width="20" height="10"/>
  <rect class="cls-1" x="60" y="60" width="10" height="10"/>
  <rect class="cls-1" x="50" y="60" width="10" height="10"/>
  <rect class="cls-1" x="80" y="80" width="10" height="10"/>
  <rect class="cls-1" x="80" y="90" width="10" height="10"/>
  <rect class="cls-1" x="90" y="90" width="10" height="10"/>
  <rect class="cls-1" x="100" y="80" width="10" height="10"/>
  <rect class="cls-1" x="70" y="90" width="10" height="10"/>
  <rect class="cls-1" x="60" y="80" width="10" height="10"/>
  <rect class="cls-1" x="100" y="60" width="10" height="10"/>
  <rect class="cls-1" x="110" y="60" width="10" height="10"/>
</svg>