<?xml version="1.0" encoding="utf-8"?>
<!-- Generator: Adobe Illustrator 28.2.0, SVG Export Plug-In . SVG Version: 6.00 Build 0)  -->
<svg version="1.1" id="Layer_1" xmlns="http://www.w3.org/2000/svg" xmlns:xlink="http://www.w3.org/1999/xlink" x="0px" y="0px"
	 viewBox="0 0 123 122" style="enable-background:new 0 0 123 122;" xml:space="preserve">
<style type="text/css">
	.st0{fill:none;stroke:#ffffff;stroke-width:6.5833;stroke-linecap:round;stroke-linejoin:round;}
	.st1{fill:none;stroke:#ffffff;stroke-width:6.4302;stroke-linecap:round;stroke-linejoin:round;}
</style>
<g>
	<g>
		<path class="st0" d="M51.7,72.7L51.7,72.7 M71.4,72.7L71.4,72.7 M55,85.9c1.6,1,3.9,1.6,6.6,1.6c2.6,0,4.9-0.7,6.6-1.6"/>
		<path class="st0" d="M84.6,54c3,3.7,5,8.1,5.9,12.8c1.1,0.5,2.1,1.4,2.7,2.4c0.7,1,1,2.3,1,3.5c0,1.2-0.3,2.4-1,3.5
			c-0.7,1-1.6,1.9-2.7,2.4c-1.4,6.6-5.1,12.6-10.3,16.8c-5.3,4.3-11.8,6.6-18.6,6.6S48.2,99.7,43,95.5c-5.3-4.3-8.9-10.2-10.3-16.8
			c-1.1-0.5-2.1-1.4-2.7-2.4c-0.7-1-1-2.3-1-3.5c0-1.2,0.3-2.4,1-3.5c0.7-1,1.6-1.9,2.7-2.4c1.4-6.7,5-12.7,10.3-17
			s11.9-6.7,18.7-6.7c6.6,0,11.5,3.6,11.5,8.2s-3,8.2-6.6,8.2c-2.6,0-4.9-1.3-4.9-3.3"/>
	</g>
	<path class="st1" d="M5.8,58.9v37.3c0,7.8,0,11.7,1.5,14.7c1.3,2.6,3.5,4.8,6.1,6.1c3,1.5,6.9,1.5,14.7,1.5h67
		c7.8,0,11.7,0,14.7-1.5c2.6-1.3,4.8-3.5,6.1-6.1c1.5-3,1.5-6.9,1.5-14.7V58.9c0-3.7,0-5.6-0.5-7.3c-0.4-1.5-1.1-3-2-4.3
		c-1-1.5-2.4-2.7-5.2-5.2L76.3,12.9c-5.2-4.6-7.8-6.8-10.7-7.7c-2.6-0.8-5.3-0.8-7.9,0c-2.9,0.9-5.5,3.1-10.7,7.7L13.4,42.2
		c-2.8,2.5-4.2,3.7-5.2,5.2c-0.9,1.3-1.6,2.8-2,4.3C5.8,53.4,5.8,55.2,5.8,58.9z"/>
	<path fill="#ffffff" d="M46.9,9c-0.7-1.7-1.8-3.3-3.2-4.6c-1.3-1.3-2.9-2.4-4.7-3.1c-1.8-0.8-3.7-1.1-5.7-1.1c-2.7,0-5.4,0.8-7.7,2.2
		c-0.6,0.3-1.1,0.7-1.6,1.1c-0.5-0.4-1-0.8-1.6-1.1c-2.3-1.4-5-2.2-7.7-2.2c-2,0-3.9,0.4-5.7,1.1C7.3,1.9,5.7,3,4.4,4.3
		C3.1,5.6,2,7.2,1.2,9c-0.8,1.8-1.2,3.7-1.2,5.7c0,1.9,0.4,3.8,1.1,5.8c0.6,1.7,1.5,3.4,2.7,5.1c1.8,2.7,4.3,5.6,7.4,8.5
		c5.2,4.8,10.3,8.1,10.5,8.2l1.3,0.9c0.6,0.4,1.3,0.4,1.9,0l1.3-0.9c0.2-0.1,5.3-3.4,10.5-8.2c3.1-2.9,5.6-5.7,7.4-8.5
		c1.1-1.7,2.1-3.4,2.7-5.1c0.8-2,1.1-3.9,1.1-5.8C48,12.7,47.6,10.8,46.9,9z"/>
</g>
</svg>
