<?xml version="1.0" encoding="UTF-8"?>
<svg id="Layer_1" data-name="Layer 1" xmlns="http://www.w3.org/2000/svg" version="1.1" viewBox="0 0 409.03 409.81">
  <defs>
    <style>
      .cls-1 {
        fill: #fff;
        stroke: #000;
      }

      .cls-1, .cls-2 {
        stroke-miterlimit: 10;
        stroke-width: 18px;
      }

      .cls-2 {
        stroke: #000;
      }

      .cls-2 {
        fill: #fff;
      }

      .cls-3 {
        stroke-width: 0px;
        fill: #000;
      }
    </style>
  </defs>
  <rect class="cls-2" x="64.66" y="64.17" width="334.81" height="334.81" rx="60" ry="60"/>
  <rect class="cls-1" x="9.22" y="9.56" width="341.52" height="341.52" rx="60" ry="60"/>
  <path class="cls-3" d="M151.42,243.68l-17.28-12,12.96-18.72c2.08-3.04,4.56-6.04,7.44-9,2.88-2.96,5.8-5.76,8.76-8.4,2.96-2.64,5.56-4.92,7.8-6.84l-.72-1.68c-3.04-.32-6.48-.68-10.32-1.08-3.84-.4-7.72-1.04-11.64-1.92-3.92-.88-7.56-1.88-10.92-3l-21.12-7.68,7.2-19.92,21.12,7.68c3.36,1.12,6.84,2.68,10.44,4.68,3.6,2,7.08,4.08,10.44,6.24,3.36,2.16,6.24,4.2,8.64,6.12l1.2-.96c-.8-3.04-1.68-6.52-2.64-10.44-.96-3.92-1.76-8-2.4-12.24-.64-4.24-.96-8.2-.96-11.88v-22.8h21.12v22.8c0,3.68-.32,7.64-.96,11.88-.64,4.24-1.44,8.32-2.4,12.24-.96,3.92-1.92,7.4-2.88,10.44l1.2.96c2.56-1.92,5.48-3.96,8.76-6.12,3.28-2.16,6.72-4.24,10.32-6.24,3.6-2,7.08-3.56,10.44-4.68l21.36-7.68,7.2,19.92-21.36,7.68c-3.2,1.12-6.76,2.12-10.68,3-3.92.88-7.8,1.52-11.64,1.92-3.84.4-7.28.76-10.32,1.08l-.96,1.92c2.4,1.92,5.08,4.2,8.04,6.84,2.96,2.64,5.84,5.44,8.64,8.4,2.8,2.96,5.16,5.88,7.08,8.76l13.2,18.72-17.28,12-13.2-18.72c-1.92-2.88-3.8-6.16-5.64-9.84-1.84-3.68-3.52-7.36-5.04-11.04-1.52-3.68-2.76-6.96-3.72-9.84h-1.68c-.96,2.88-2.2,6.16-3.72,9.84-1.52,3.68-3.2,7.36-5.04,11.04-1.84,3.68-3.8,6.96-5.88,9.84l-12.96,18.72Z"/>
</svg>