<?xml version="1.0" encoding="UTF-8"?>
<svg id="Layer_1" xmlns="http://www.w3.org/2000/svg" version="1.1" viewBox="0 0 68.86 68.86">
  <!-- Generator: Adobe Illustrator 29.4.0, SVG Export Plug-In . SVG Version: 2.1.0 Build 152)  -->
  <defs>
    <style>
      .st0 {
        fill: #fff;
      }
    </style>
  </defs>
  <path class="st0" d="M64.86,68.86H4c-2.21,0-4-1.79-4-4v-13.04h8v9.04h52.86v-18.17h-9.94c-1.53,0-2.93-.88-3.6-2.25l-5.89-12.15-10.27,23.43c-.56,1.28-1.75,2.18-3.14,2.36-1.38.18-2.77-.37-3.65-1.47l-7.46-9.32H4c-2.21,0-4-1.79-4-4V4C0,1.79,1.79,0,4,0h60.86c2.21,0,4,1.79,4,4v21h-8V8H8v27.3h10.84c1.21,0,2.36.55,3.12,1.5l4.53,5.66,11.09-25.32c.63-1.43,2.03-2.36,3.59-2.39,1.56-.04,3,.85,3.68,2.25l8.58,17.69h11.43c2.21,0,4,1.79,4,4v26.17c0,2.21-1.79,4-4,4Z"/>
</svg>