<?xml version="1.0" encoding="UTF-8" standalone="no"?>
<!-- Created with Inkscape (http://www.inkscape.org/) -->

<svg
   xmlns:dc="http://purl.org/dc/elements/1.1/"
   xmlns:cc="http://creativecommons.org/ns#"
   xmlns:rdf="http://www.w3.org/1999/02/22-rdf-syntax-ns#"
   xmlns:svg="http://www.w3.org/2000/svg"
   xmlns="http://www.w3.org/2000/svg"
   version="1.1"
   width="203.26299"
   height="50.122437"
   id="svg2985"
   xml:space="preserve"><metadata
     id="metadata2991"><rdf:RDF><cc:Work
         rdf:about=""><dc:format>image/svg+xml</dc:format><dc:type
           rdf:resource="http://purl.org/dc/dcmitype/StillImage" /><dc:title></dc:title></cc:Work></rdf:RDF></metadata><defs
     id="defs2989"><clipPath
       id="clipPath3335"><path
         d="M 0,792 612,792 612,0 0,0 0,792 z"
         id="path3337" /></clipPath></defs><g
     transform="matrix(1.25,0,0,-1.25,-7.9344815,155.48436)"
     id="g2993"><g
       transform="matrix(1.6754251,0,0,1.6754251,-114.11845,-84.014433)"
       id="g3447"><g
         transform="translate(92.204773,109.96349)"
         id="g3343"><path
           d="M 0,0 C 0.359,1.713 1.626,2.948 3.495,2.948 5.365,2.948 6.612,1.841 6.933,0 L 0,0 z m -11.562,-5.684 c -0.509,-0.091 -1.127,-0.111 -1.631,-0.111 l -2.949,0 0,7.686 2.639,0 c 0.832,0 1.774,-0.095 2.315,-0.234 1.851,-0.489 2.912,-1.814 2.912,-3.573 0,-1.817 -0.977,-3.351 -3.286,-3.768 m -4.58,16.927 1.126,0 c 1.087,0 1.945,-0.118 2.565,-0.357 1.218,-0.476 1.799,-1.443 1.799,-2.657 0.003,-1.023 -0.391,-2.638 -2.547,-3.077 C -13.56,5.08 -14.079,5.04 -14.814,5.04 l -1.328,0 0,6.203 z M 10.739,0.607 C 10.521,1.671 10.101,2.547 9.495,3.342 8.255,4.981 6.246,6.014 3.527,6.014 -0.7,6.014 -3.299,3.146 -4.069,0.116 -4.758,2.25 -6.609,3.69 -8.564,4.298 c 1.471,1.072 2.241,2.607 2.241,4.358 0,1.625 -0.676,3.103 -1.808,4.067 -1.661,1.413 -3.927,1.701 -6.717,1.701 l -5.455,0 0,-23.554 c 1.546,0 3.134,0.008 4.684,0 1.376,-0.006 2.722,0.005 3.977,0.054 3.973,0.159 6.691,2.157 7.56,5.159 0.299,-1.336 0.873,-2.423 1.624,-3.247 1.53,-1.686 3.748,-2.345 5.98,-2.345 2.748,0 4.737,0.801 6.095,2.021 L 7.674,-5.203 C 6.696,-5.941 5.438,-6.376 4.026,-6.376 c -2.768,0.009 -3.989,1.763 -4.1,3.445 l 10.813,0 0,-6.199 4.05,0 0,23.437 -4.05,0 0,-13.7 z"
           id="path3345"
           style="fill:#1162a5;fill-opacity:1;fill-rule:nonzero;stroke:none" /></g><path
         d="m 109.69737,100.83339 3.979,0 0,23.437 -3.979,0 0,-23.437 z"
         id="path3347"
         style="fill:#1162a5;fill-opacity:1;fill-rule:nonzero;stroke:none" /><g
         transform="translate(129.92888,114.43419)"
         id="g3349"><path
           d="m 0,0 c 0,0.146 -0.063,0.271 -0.128,0.271 -0.106,0 -0.214,-0.061 -0.363,-0.447 l -4.315,-9.884 -1.277,0 -4.315,9.884 c -0.085,0.194 -0.19,0.447 -0.34,0.447 -0.087,0 -0.148,-0.061 -0.148,-0.253 l 0,-13.543 -1.384,0 0,13.543 c 0,0.915 0.618,1.551 1.489,1.551 0.852,0 1.361,-0.53 1.701,-1.34 l 3.637,-8.418 3.635,8.418 c 0.299,0.661 0.808,1.34 1.745,1.34 0.956,0 1.445,-0.679 1.445,-1.593 l 0,-13.501 -1.382,0 L 0,0 z"
           id="path3351"
           style="fill:#231f20;fill-opacity:1;fill-rule:nonzero;stroke:none" /></g><g
         transform="translate(149.00017,110.13439)"
         id="g3353"><path
           d="m 0,0 c -2.402,0 -3.763,-1.785 -3.763,-4.062 0,-2.252 1.19,-4.125 3.701,-4.125 1.51,0 2.508,0.51 3.359,1.127 l 0,4.021 C 3.297,-1.297 1.958,0 0,0 m 4.68,-9.226 -1.277,0 0,0.276 c 0,0.467 -0.384,0.382 -0.681,0.255 -0.786,-0.363 -1.85,-0.659 -2.87,-0.659 -3.234,0 -4.999,2.254 -4.999,5.271 0,2.977 2.044,5.276 5.085,5.276 1.617,0 2.699,-0.533 3.465,-1.297 l 0,6.039 1.277,0 0,-15.161 z"
           id="path3355"
           style="fill:#231f20;fill-opacity:1;fill-rule:nonzero;stroke:none" /></g><path
         d="m 156.09037,111.11539 1.383,0 0,-10.207 -1.383,0 0,10.207 z m 0.703,2.021 c -0.615,0 -0.913,0.315 -0.913,0.934 0,0.615 0.298,0.915 0.913,0.915 0.617,0 0.894,-0.3 0.894,-0.915 0,-0.619 -0.277,-0.934 -0.894,-0.934"
         id="path3357"
         style="fill:#231f20;fill-opacity:1;fill-rule:nonzero;stroke:none" /><g
         transform="translate(164.42697,110.19779)"
         id="g3359"><path
           d="m 0,0 c -2.615,0 -3.912,-1.935 -3.912,-4.253 0,-2.339 1.319,-3.997 3.851,-3.997 1.212,0 2.402,0.446 3.231,0.914 l 0,4.084 C 3.17,-1.21 1.724,0 0,0 m 4.531,0.918 0,-10.207 -1.212,0 -0.022,0.082 C 3.213,-8.759 2.873,-8.759 2.594,-8.843 2.149,-8.969 1.724,-9.121 1.276,-9.249 0.83,-9.355 0.363,-9.439 -0.19,-9.439 c -3.104,0 -5.123,1.999 -5.123,5.148 0,2.998 1.955,5.482 5.252,5.482 1.468,0 2.572,-0.509 3.294,-1.337 l 0,1.064 1.298,0 z"
           id="path3361"
           style="fill:#231f20;fill-opacity:1;fill-rule:nonzero;stroke:none" /></g><g
         transform="translate(134.46308,107.00939)"
         id="g3363"><path
           d="M 0,0 6.782,0 C 6.549,1.873 5.464,3.214 3.485,3.214 1.594,3.214 0.274,1.767 0,0 m 3.829,-5.083 c 1.36,0 2.464,0.427 3.507,1.192 l 0.637,-1.02 c -1.191,-0.914 -2.53,-1.38 -4.253,-1.38 -3.294,0 -5.189,2.253 -5.189,5.335 0,3.002 2.043,5.337 4.954,5.337 2.766,0 4.597,-1.847 4.744,-4.569 0,0 0.064,-0.812 0.064,-0.978 l -8.337,0 c 0.065,-2.299 1.426,-3.917 3.873,-3.917"
           id="path3365"
           style="fill:#231f20;fill-opacity:1;fill-rule:nonzero;stroke:none" /></g></g></g></svg>