<?xml version="1.0" encoding="UTF-8" standalone="no"?>
<!-- Created with Inkscape (http://www.inkscape.org/) -->
<svg
   xmlns:svg="http://www.w3.org/2000/svg"
   xmlns="http://www.w3.org/2000/svg"
   version="1.0"
   width="793.70074"
   height="241.68896"
   id="svg2811">
  <defs
     id="defs2813">
    <clipPath
       id="clp21">
      <path
         d="M 123.91,72.178 L 150.14,72.178 L 150.14,87.472 L 123.91,87.472 L 123.91,72.178 z "
         id="path592" />
    </clipPath>
    <clipPath
       id="clp9">
      <path
         d="M 413.96,49.857 L 445.72,49.857 L 445.72,58.576 L 413.96,58.576 L 413.96,49.857 z "
         id="path100" />
    </clipPath>
  </defs>
  <g
     transform="translate(-1194.641,-1344.376)"
     id="layer1">
    <g
       transform="translate(7.086572,7.086332)"
       id="g25441">
      <path
         d="M 1281.7402,1570.3296 L 1194.641,1570.3296 L 1238.0751,1495.0195 L 1325.1744,1495.0195"
         style="fill:#d40000;fill-rule:nonzero;stroke:none"
         id="path274" />
      <path
         d="M 1368.6085,1570.3296 L 1455.4788,1570.3296 L 1412.0447,1495.0195 L 1325.1744,1495.0195"
         style="fill:#d40000;fill-rule:nonzero;stroke:none"
         id="path276" />
      <path
         d="M 1368.6085,1419.6866 L 1325.1744,1344.3764 L 1281.7402,1419.6866 L 1325.1744,1495.0195"
         style="fill:#d40000;fill-rule:nonzero;stroke:none"
         id="path278" />
      <path
         d="M 1494.5475,1538.2474 L 1529.4796,1538.2474 L 1529.4796,1525.6541 L 1494.5475,1525.6541 L 1494.5475,1510.0955 L 1533.845,1510.0955 L 1533.845,1497.4548 L 1479.8385,1497.4548 L 1479.8385,1570.3296 L 1534.7647,1570.3296 L 1534.7647,1557.6889 L 1494.5475,1557.6889"
         style="fill:black;fill-rule:nonzero;stroke:none"
         id="path280" />
      <path
         d="M 1493.6278,1431.154 L 1509.0255,1485.3214 L 1523.2747,1485.3214 L 1538.6724,1431.154 L 1538.6724,1485.3214 L 1552.4597,1485.3214 L 1552.4597,1412.4692 L 1531.3169,1412.4692 L 1516.1501,1463.6033 L 1500.9813,1412.4692 L 1479.8385,1412.4692 L 1479.8385,1485.3214 L 1493.6278,1485.3214"
         style="fill:black;fill-rule:nonzero;stroke:none"
         id="path282" />
      <path
         d="M 1814.2193,1485.3214 L 1828.9262,1485.3214 L 1828.9262,1412.4692 L 1814.2193,1412.4692 L 1814.2193,1485.3214 z "
         style="fill:black;fill-rule:nonzero;stroke:none"
         id="path284" />
      <path
         d="M 1826.1692,1570.3296 L 1840.8761,1570.3296 L 1840.8761,1497.4548 L 1826.1692,1497.4548 L 1826.1692,1570.3296 z "
         style="fill:black;fill-rule:nonzero;stroke:none"
         id="path286" />
      <path
         d="M 1959.4616,1485.3214 L 1974.1686,1485.3214 L 1974.1686,1412.4692 L 1959.4616,1412.4692 L 1959.4616,1485.3214 z "
         style="fill:black;fill-rule:nonzero;stroke:none"
         id="path288" />
      <path
         d="M 1558.2068,1485.3214 L 1572.9137,1485.3214 L 1572.9137,1412.4692 L 1558.2068,1412.4692 L 1558.2068,1485.3214 z "
         style="fill:black;fill-rule:nonzero;stroke:none"
         id="path290" />
      <path
         d="M 1939.0076,1440.8747 L 1909.8205,1440.8747 L 1909.8205,1412.4692 L 1895.3425,1412.4692 L 1895.3425,1485.3214 L 1909.8205,1485.3214 L 1909.8205,1453.4907 L 1939.0076,1453.4907 L 1939.0076,1485.3214 L 1953.2567,1485.3214 L 1953.2567,1412.4692 L 1939.0076,1412.4692"
         style="fill:black;fill-rule:nonzero;stroke:none"
         id="path292" />
      <path
         d="M 1594.7452,1485.3214 L 1609.6831,1485.3214 L 1609.6831,1425.0646 L 1627.3801,1425.0646 L 1627.3801,1412.4692 L 1576.8214,1412.4692 L 1576.8214,1425.0646 L 1594.7452,1425.0646"
         style="fill:black;fill-rule:nonzero;stroke:none"
         id="path294" />
      <path
         d="M 1728.4975,1570.3296 L 1743.4354,1570.3296 L 1743.4354,1510.0955 L 1761.3613,1510.0955 L 1761.3613,1497.4548 L 1710.8026,1497.4548 L 1710.8026,1510.0955 L 1728.4975,1510.0955"
         style="fill:black;fill-rule:nonzero;stroke:none"
         id="path296" />
      <path
         d="M 1718.6159,1487.3422 C 1737.2305,1487.3422 1747.572,1478.8402 1747.572,1462.5454 L 1747.572,1412.4692 L 1732.8651,1412.4692 L 1732.8651,1463.9023 C 1732.8651,1470.1752 1727.5778,1475.3923 1718.6159,1475.3923 C 1707.3547,1475.3923 1704.1379,1469.2101 1704.1379,1463.9023 L 1704.1379,1412.4692 L 1689.8887,1412.4692 L 1689.8887,1462.5454 C 1689.8887,1480.0816 1700.69,1487.3422 1718.6159,1487.3422"
         style="fill:black;fill-rule:nonzero;stroke:none"
         id="path298" />
      <path
         d="M 1607.6148,1538.2474 L 1642.318,1538.2474 L 1642.318,1525.6541 L 1607.6148,1525.6541 L 1607.6148,1510.0955 L 1646.6835,1510.0955 L 1646.6835,1497.4548 L 1592.9079,1497.4548 L 1592.9079,1570.3296 L 1647.8341,1570.3296 L 1647.8341,1557.6889 L 1607.6148,1557.6889"
         style="fill:black;fill-rule:nonzero;stroke:none"
         id="path300" />
      <path
         d="M 1785.721,1424.0294 C 1789.6286,1424.0294 1794.2251,1427.7515 1794.2251,1432.6469 C 1794.2251,1437.0145 1791.0082,1441.8398 1784.8033,1441.8398 L 1767.3373,1441.8398 L 1767.3373,1424.0294 L 1785.721,1424.0294 z M 1784.5724,1474.2891 L 1767.3373,1474.2891 L 1767.3373,1453.169 L 1784.3435,1453.169 C 1790.5483,1453.169 1795.6026,1456.687 1795.6026,1463.7641 C 1795.6026,1469.7401 1791.0082,1474.2891 1784.5724,1474.2891 M 1767.7971,1485.3214 L 1788.9399,1485.3214 C 1802.7271,1485.3214 1810.7714,1477.1163 1810.7714,1465.6262 C 1810.7714,1456.3653 1804.1067,1448.4117 1796.7532,1446.5744 C 1803.187,1444.966 1808.2433,1438.4167 1808.2433,1430.3724 C 1808.2433,1419.6392 1800.43,1412.4692 1785.721,1412.4692 L 1752.8592,1412.4692 L 1752.8592,1485.3214 L 1752.8592,1485.3214"
         style="fill:black;fill-rule:nonzero;stroke:none"
         id="path302" />
      <path
         d="M 1779.747,1529.8134 L 1779.747,1509.98 L 1797.442,1509.98 C 1803.4179,1509.98 1807.3236,1514.1847 1807.3236,1519.9318 C 1807.3236,1523.9982 1803.8778,1529.8134 1797.9018,1529.8134 L 1779.747,1529.8134 z M 1808.932,1535.3522 C 1815.1369,1533.4674 1821.8016,1527.8585 1821.8016,1517.748 C 1821.8016,1504.7856 1813.0686,1497.3641 1798.1307,1497.3641 L 1764.8091,1497.3641 L 1764.8091,1570.2141 L 1779.747,1570.2141 L 1779.747,1541.5096 L 1792.1568,1541.5096 C 1799.7412,1541.5096 1803.8778,1545.44 1805.0264,1550.6345 C 1806.4039,1556.3568 1806.175,1564.8815 1807.5545,1570.2141 L 1822.4924,1570.2141 C 1821.1129,1564.63 1820.1932,1557.0455 1819.7333,1551.0716 C 1819.2735,1541.2106 1813.9883,1537.2596 1808.932,1535.3522"
         style="fill:black;fill-rule:nonzero;stroke:none"
         id="path304" />
      <path
         d="M 1554.2991,1497.4548 L 1539.5901,1497.4548 L 1539.5901,1570.3296 L 1588.5403,1570.3296 L 1588.5403,1557.6889 L 1554.2991,1557.6889"
         style="fill:black;fill-rule:nonzero;stroke:none"
         id="path306" />
      <path
         d="M 1652.1996,1454.5259 C 1663.9206,1456.5715 1670.5853,1458.7779 1670.5853,1465.8324 C 1670.5853,1470.5897 1665.9889,1475.1408 1656.1073,1475.1408 C 1646.2236,1475.1408 1641.1694,1469.5793 1641.1694,1462.9372 L 1627.1491,1462.9372 C 1627.1491,1475.6233 1635.4223,1487.1814 1656.796,1487.1814 C 1677.0191,1487.1814 1685.9831,1476.4048 1685.9831,1464.1085 C 1685.9831,1452.6184 1678.3987,1445.333 1665.0692,1442.6667 C 1651.9707,1440.1386 1643.2377,1439.6107 1643.2377,1431.4056 C 1643.2377,1425.776 1648.2919,1422.421 1656.3362,1422.421 C 1664.6094,1422.421 1669.4367,1426.5802 1669.4367,1433.5666 L 1683.6838,1433.5666 C 1683.6838,1422.0766 1674.9508,1410.2401 1655.6474,1410.2401 C 1642.318,1410.2401 1628.5287,1417.94 1628.5287,1432.3479 C 1628.5287,1444.436 1637.2617,1451.9297 1652.1996,1454.5259"
         style="fill:black;fill-rule:nonzero;stroke:none"
         id="path308" />
      <path
         d="M 1857.4245,1454.5259 C 1869.3744,1456.5715 1876.0391,1458.7779 1876.0391,1465.8324 C 1876.0391,1470.5897 1871.2117,1475.1408 1861.5611,1475.1408 C 1851.6774,1475.1408 1846.6232,1469.5793 1846.6232,1462.9372 L 1832.6029,1462.9372 C 1832.6029,1475.6233 1840.6472,1487.1814 1862.2498,1487.1814 C 1882.4729,1487.1814 1891.4369,1476.4048 1891.4369,1464.1085 C 1891.4369,1452.6184 1883.8524,1445.333 1870.2941,1442.6667 C 1857.4245,1440.1386 1848.4605,1439.6107 1848.4605,1431.4056 C 1848.4605,1425.776 1853.7457,1422.421 1861.5611,1422.421 C 1870.0631,1422.421 1874.8885,1426.5802 1874.8885,1433.5666 L 1889.1376,1433.5666 C 1889.1376,1422.0766 1880.4046,1410.2401 1861.1012,1410.2401 C 1847.7718,1410.2401 1833.7536,1417.94 1833.7536,1432.3479 C 1833.7536,1444.436 1842.7155,1451.9297 1857.4245,1454.5259"
         style="fill:black;fill-rule:nonzero;stroke:none"
         id="path310" />
      <path
         d="M 1680.9268,1559.0685 C 1669.2058,1559.0685 1662.3122,1547.4402 1662.3122,1533.5808 C 1662.3122,1519.7235 1668.9769,1508.0953 1680.9268,1508.0953 C 1690.1197,1508.0953 1694.7161,1513.6795 1696.5534,1520.5504 L 1711.9512,1520.5504 C 1709.423,1506.2806 1698.3928,1495.7082 1680.6958,1495.7082 C 1658.4045,1495.7082 1646.9144,1512.7598 1646.9144,1533.7664 C 1646.9144,1554.8391 1658.8643,1571.8927 1680.6958,1571.8927 C 1698.1619,1571.8927 1709.8829,1561.7348 1711.9512,1546.1535 L 1696.5534,1546.1535 C 1694.7161,1553.4843 1689.8887,1559.0685 1680.9268,1559.0685"
         style="fill:black;fill-rule:nonzero;stroke:none"
         id="path312" />
      <path
         d="M 1878.5673,1559.0685 C 1866.6153,1559.0685 1859.7217,1547.4402 1859.7217,1533.5808 C 1859.7217,1519.7235 1866.3864,1508.0953 1878.5673,1508.0953 C 1887.5292,1508.0953 1892.1256,1513.6795 1894.1939,1520.5504 L 1909.3607,1520.5504 C 1906.8346,1506.2806 1895.8024,1495.7082 1878.1074,1495.7082 C 1855.814,1495.7082 1844.5549,1512.7598 1844.5549,1533.7664 C 1844.5549,1554.8391 1856.2738,1571.8927 1878.1074,1571.8927 C 1895.5735,1571.8927 1907.2924,1561.7348 1909.5917,1546.1535 L 1894.1939,1546.1535 C 1892.1256,1553.4843 1887.3003,1559.0685 1878.5673,1559.0685"
         style="fill:black;fill-rule:nonzero;stroke:none"
         id="path314" />
    </g>
  </g>
</svg>
