<svg width="500" height="143" viewBox="0 0 500 143" fill="none" xmlns="http://www.w3.org/2000/svg"> <g clip-path="url(#clip0_232:9118)"> <path d="M253.612 34.541C240.454 34.541 232.461 41.5572 232.461 52.5313V62.1946C232.461 62.1946 231.407 46.9286 253.612 46.9286H265.435V34.541H253.612Z" fill="#EB5558"/> <path d="M234.796 100.309C233.308 98.2817 232.507 95.8325 232.509 93.3181V28.3477L205.241 38.6278L214.904 46.3379C215.808 47.0585 216.538 47.9731 217.041 49.0141C217.544 50.0551 217.806 51.1958 217.808 52.3518V93.1896C217.801 95.7066 216.99 98.1556 215.495 100.18L205.215 114.11H245.076L234.796 100.309Z" fill="#EB5558"/> <path d="M173.117 97.1989V28.3477L200.385 38.6278L190.722 46.3379C189.784 47.072 189.03 48.0132 188.517 49.0878C188.004 50.1624 187.747 51.3412 187.766 52.5317V93.3695C187.773 95.8865 188.584 98.3355 190.079 100.36L200.359 114.29H170.547L173.117 97.1989Z" fill="#EB5558"/> <path d="M104.316 73.5289C104.316 97.5844 119.968 117.219 142.867 117.219C165.766 117.219 184.27 97.7129 184.27 73.5289C184.27 49.3448 165.74 29.9668 142.867 29.9668C119.994 29.9668 104.316 49.4733 104.316 73.5289ZM120.379 73.5289C120.379 54.9475 129.117 39.8871 145.694 39.8871C164.044 39.8871 172.936 53.02 172.936 73.5289C172.936 91.8275 163.71 107.171 145.694 107.171C128.141 107.171 120.379 92.1102 120.379 73.5289Z" fill="#EB5558"/> <path d="M428.04 97.1989V28.3477L455.308 38.6278L445.645 46.3379C444.741 47.0585 444.01 47.9731 443.508 49.0141C443.005 50.0551 442.743 51.1958 442.74 52.3518V93.1896C442.748 95.7066 443.558 98.1556 445.053 100.18L455.334 114.11H425.547L428.04 97.1989Z" fill="#EB5558"/> <path d="M359.934 73.5289C359.934 97.5844 375.585 117.219 398.484 117.219C421.383 117.219 439.862 97.7129 439.862 73.5289C439.862 49.3448 421.332 29.9668 398.484 29.9668C375.636 29.9668 359.934 49.4733 359.934 73.5289ZM375.996 73.5289C375.996 54.9475 384.734 39.8871 401.311 39.8871C419.661 39.8871 428.528 53.02 428.528 73.5289C428.528 91.8275 419.327 107.171 401.311 107.171C383.861 107.171 375.996 92.1102 375.996 73.5289Z" fill="#EB5558"/> <path d="M489.745 100.308C488.257 98.2816 487.456 95.8323 487.458 93.3179V0L460.19 10.4086L469.853 18.1187C470.757 18.8393 471.487 19.7539 471.99 20.7949C472.493 21.8359 472.755 22.9766 472.757 24.1326V93.2922C472.75 95.8092 471.94 98.2582 470.444 100.283L460.164 114.212H499.974L489.745 100.308Z" fill="#EB5558"/> <path d="M29.5557 128.656C28.0674 126.62 27.2662 124.162 27.2683 121.64V28.3477L0.000295588 38.6278L9.66361 46.3379C10.5676 47.0585 11.2979 47.9731 11.8006 49.0141C12.3033 50.0551 12.5655 51.1958 12.5678 52.3518V121.511C12.5607 124.036 11.7506 126.493 10.2547 128.528L-0.0253906 142.431H39.7844L29.5557 128.656Z" fill="#EB5558"/> <path d="M60.9091 29.9668C38.0358 29.9668 19.5059 49.4733 19.5059 73.5289C19.5059 97.5844 38.0358 117.219 60.9091 117.219C83.7824 117.219 99.4596 97.7129 99.4596 73.5289C99.4596 49.3448 83.7567 29.9668 60.9091 29.9668ZM58.0307 107.068C40.0404 107.068 30.7883 91.6476 30.7883 73.4261C30.7883 52.8658 39.6806 39.7843 58.0307 39.7843C74.6074 39.7843 83.3455 54.8447 83.3455 73.4261C83.3455 92.0074 75.584 107.171 58.0307 107.171V107.068Z" fill="#EB5558"/> <path d="M345.208 29.9405C350.601 29.9405 354.974 25.568 354.974 20.1743C354.974 14.7806 350.601 10.4082 345.208 10.4082C339.814 10.4082 335.441 14.7806 335.441 20.1743C335.441 25.568 339.814 29.9405 345.208 29.9405Z" fill="#EB5558"/> <path d="M352.583 93.3177V34.541H337.857V93.3177C337.859 95.8321 337.057 98.2813 335.569 100.308L325.289 114.238H365.099L354.819 100.308C353.349 98.275 352.566 95.8263 352.583 93.3177V93.3177Z" fill="#EB5558"/> <path d="M325.984 47.0314H265.434L272.784 34.541H325.984V47.0314Z" fill="#EB5558"/> <path d="M301.08 95.3224H285.84V37.9079L291.468 31.4571L289.772 14.1865L301.08 10.3828V95.3224Z" fill="#EB5558"/> <path d="M301.08 95.3223C301.08 95.3223 300.695 104.934 307.916 105.602C310.082 105.786 312.244 105.216 314.037 103.989C315.831 102.762 317.146 100.953 317.76 98.8689L326.009 102.338C326.009 102.338 321.461 116.808 308.302 117.168C295.143 117.527 285.84 110.563 285.84 95.3994" fill="#EB5558"/> <path d="M292.652 21.433L289.773 14.1855C289.773 14.1855 289.902 34.5402 272.785 34.5402V47.0306C294.99 47.0306 292.574 46.7736 292.574 46.7736L292.652 21.433Z" fill="#EB5558"/> </g> <defs> <clipPath id="clip0_232:9118"> <rect width="500" height="142.56" fill="white"/> </clipPath> </defs> </svg>